<svg width="15" height="11" viewBox="0 0 15 11" fill="none" xmlns="http://www.w3.org/2000/svg">
<path d="M1.32999 7.83305C1.04484 5.97961 0.759704 4.12622 0.474563 2.27278C0.411329 1.86192 0.878813 1.5817 1.21134 1.83113C2.09972 2.49741 2.98805 3.16364 3.87642 3.82992C4.16892 4.0493 4.58564 3.97791 4.78842 3.67369L7.00716 0.345564C7.24163 -0.00613866 7.75838 -0.00613866 7.99285 0.345564L10.2116 3.67369C10.4144 3.97791 10.8311 4.04925 11.1236 3.82992C12.012 3.16364 12.9003 2.49741 13.7887 1.83113C14.1212 1.5817 14.5887 1.86192 14.5255 2.27278C14.2403 4.12622 13.9552 5.97961 13.6701 7.83305H1.32999Z" fill="#FFB743"/>
<path d="M13.0267 10.9181H1.97334C1.61803 10.9181 1.32998 10.63 1.32998 10.2747V8.86145H13.6701V10.2747C13.67 10.63 13.382 10.9181 13.0267 10.9181Z" fill="#FFB743"/>
</svg>
