<svg width="14" height="16" viewBox="0 0 14 16" fill="none" xmlns="http://www.w3.org/2000/svg">
<path d="M11.307 10.7623C10.5404 10.7623 9.84974 11.0934 9.37037 11.62L5.05874 8.94957C5.17385 8.65489 5.23769 8.33482 5.23769 7.99998C5.23769 7.66502 5.17385 7.34496 5.05874 7.0504L9.37037 4.37987C9.84974 4.90648 10.5404 5.23766 11.307 5.23766C12.7511 5.23766 13.9259 4.06286 13.9259 2.61877C13.9259 1.17468 12.7511 0 11.307 0C9.86293 0 8.68812 1.1748 8.68812 2.61889C8.68812 2.95373 8.75209 3.2738 8.86708 3.56847L4.55556 6.23888C4.07619 5.71227 3.38552 5.38109 2.61892 5.38109C1.17483 5.38109 3.05176e-05 6.55602 3.05176e-05 7.99998C3.05176e-05 9.44407 1.17483 10.6189 2.61892 10.6189C3.38552 10.6189 4.07619 10.2878 4.55556 9.76109L8.86708 12.4315C8.75209 12.7262 8.68812 13.0462 8.68812 13.3812C8.68812 14.8252 9.86293 16 11.307 16C12.7511 16 13.9259 14.8252 13.9259 13.3812C13.9259 11.9371 12.7511 10.7623 11.307 10.7623ZM9.64308 2.61889C9.64308 1.70141 10.3895 0.954954 11.307 0.954954C12.2245 0.954954 12.971 1.70141 12.971 2.61889C12.971 3.53637 12.2245 4.28283 11.307 4.28283C10.3895 4.28283 9.64308 3.53637 9.64308 2.61889ZM2.61892 9.66392C1.70132 9.66392 0.954863 8.91746 0.954863 7.99998C0.954863 7.08251 1.70132 6.33605 2.61892 6.33605C3.5364 6.33605 4.28274 7.08251 4.28274 7.99998C4.28274 8.91746 3.5364 9.66392 2.61892 9.66392ZM9.64308 13.3811C9.64308 12.4636 10.3895 11.7171 11.307 11.7171C12.2245 11.7171 12.971 12.4636 12.971 13.3811C12.971 14.2986 12.2245 15.045 11.307 15.045C10.3895 15.045 9.64308 14.2986 9.64308 13.3811Z" fill="#353535"/>
</svg>
