<svg width="14" height="14" viewBox="0 0 14 14" fill="none" xmlns="http://www.w3.org/2000/svg">
<path d="M8.15333 1.33999L9.32667 3.68666C9.48667 4.01333 9.91333 4.32666 10.2733 4.38666L12.4 4.73999C13.76 4.96666 14.08 5.95333 13.1 6.92666L11.4467 8.57999C11.1667 8.85999 11.0133 9.39999 11.1 9.78666L11.5733 11.8333C11.9467 13.4533 11.0867 14.08 9.65333 13.2333L7.66 12.0533C7.3 11.84 6.70667 11.84 6.34 12.0533L4.34667 13.2333C2.92 14.08 2.05333 13.4467 2.42667 11.8333L2.9 9.78666C2.98667 9.39999 2.83333 8.85999 2.55333 8.57999L0.9 6.92666C-0.073333 5.95333 0.240001 4.96666 1.6 4.73999L3.72667 4.38666C4.08 4.32666 4.50667 4.01333 4.66667 3.68666L5.84 1.33999C6.48 0.0666612 7.52 0.0666612 8.15333 1.33999Z" fill="#FFAA04"/>
</svg>
