<svg width="16" height="16" viewBox="0 0 16 16" fill="none" xmlns="http://www.w3.org/2000/svg">
<path d="M8 8.00004C9.84095 8.00004 11.3333 6.50766 11.3333 4.66671C11.3333 2.82576 9.84095 1.33337 8 1.33337C6.15906 1.33337 4.66667 2.82576 4.66667 4.66671C4.66667 6.50766 6.15906 8.00004 8 8.00004Z" stroke="#3AC2CB" stroke-linecap="round" stroke-linejoin="round"/>
<path d="M2.27333 14.6667C2.27333 12.0867 4.84 10 8 10C8.64 10 9.26 10.0867 9.84 10.2467" stroke="#3AC2CB" stroke-linecap="round" stroke-linejoin="round"/>
<path d="M14.6667 12C14.6667 12.2134 14.64 12.42 14.5867 12.62C14.5267 12.8867 14.42 13.1467 14.28 13.3734C13.82 14.1467 12.9733 14.6667 12 14.6667C11.3133 14.6667 10.6933 14.4067 10.2267 13.98C10.0267 13.8067 9.85333 13.6 9.71999 13.3734C9.47333 12.9734 9.33334 12.5 9.33334 12C9.33334 11.28 9.62001 10.6201 10.0867 10.1401C10.5733 9.64006 11.2533 9.33337 12 9.33337C12.7867 9.33337 13.5 9.67339 13.98 10.2201C14.4067 10.6934 14.6667 11.32 14.6667 12Z" stroke="#3AC2CB" stroke-miterlimit="10" stroke-linecap="round" stroke-linejoin="round"/>
<path d="M12.9933 11.9866H11.0067" stroke="#3AC2CB" stroke-miterlimit="10" stroke-linecap="round" stroke-linejoin="round"/>
<path d="M12 11.0133V13.0066" stroke="#3AC2CB" stroke-miterlimit="10" stroke-linecap="round" stroke-linejoin="round"/>
</svg>
